<svg id="Layer_1" viewBox="0 0 512 512" xmlns="http://www.w3.org/2000/svg" data-name="Layer 1"><path d="m130.562 13c-14.69 0-26.2 8.557-26.2 19.481v21.424h-48.013a31.82 31.82 0 0 0 -31.783 31.784v381.556a31.806 31.806 0 0 0 31.783 31.755h399.33a31.791 31.791 0 0 0 31.755-31.755v-381.556a31.806 31.806 0 0 0 -31.755-31.784h-48.043v-21.424c0-10.924-11.5-19.481-26.171-19.481-14.691 0-26.2 8.557-26.2 19.481v21.424h-73.065v-21.424c0-10.924-11.509-19.481-26.2-19.481s-26.2 8.557-26.2 19.481v21.424h-73.04v-21.424c.001-10.924-11.507-19.481-26.198-19.481zm-10.2 19.6c.484-1.048 4.161-3.6 10.2-3.6s9.715 2.552 10.2 3.6v21.305h-20.4zm-79.8 121.3h430.872v238.05h-59.634a8 8 0 0 0 -8 8v59.637h-347.451a15.8 15.8 0 0 1 -15.783-15.787zm419.555 254.05-40.317 40.321v-40.323zm-4.438 75.05h-399.33a15.808 15.808 0 0 1 -15.126-11.25 31.593 31.593 0 0 0 15.126 3.835h355.451a8.008 8.008 0 0 0 5.658-2.343l53.979-53.98v47.983a15.773 15.773 0 0 1 -15.758 15.755zm-84.413-450.4c.477-1.045 4.149-3.595 10.2-3.595 6.034 0 9.7 2.55 10.171 3.594v21.306h-20.37zm-125.466 0c.485-1.047 4.161-3.6 10.2-3.6s9.714 2.552 10.2 3.6v21.305h-20.4zm10.2 71.21a8 8 0 0 0 0-16c-6.016 0-9.7-2.556-10.2-3.61v-14.295h109.466v14.423c0 10.924 11.508 19.481 26.2 19.481a8 8 0 0 0 0-16c-6.029 0-9.709-2.554-10.2-3.605v-14.3h84.413a15.787 15.787 0 0 1 15.755 15.784v52.212h-430.868v-52.211a15.8 15.8 0 0 1 15.783-15.784h48.015v14.423c0 10.924 11.508 19.481 26.2 19.481a8 8 0 0 0 0-16c-6.016 0-9.7-2.556-10.2-3.61v-14.294h109.436v14.423c0 10.924 11.509 19.481 26.2 19.481zm-66.588 145.251h40.707a8 8 0 0 0 8-8v-35.916a8 8 0 0 0 -8-8h-40.707a8 8 0 0 0 -8 8v35.916a8 8 0 0 0 8 8zm8-35.916h24.707v19.916h-24.707zm84.469 35.916h40.706a8 8 0 0 0 8-8v-35.916a8 8 0 0 0 -8-8h-40.706a8 8 0 0 0 -8 8v35.916a8 8 0 0 0 8 8zm8-35.916h24.706v19.916h-24.706zm-192.938 123.793h40.734a8 8 0 0 0 8-8v-35.888a8 8 0 0 0 -8-8h-40.734a8 8 0 0 0 -8 8v35.888a8 8 0 0 0 8 8zm8-35.888h24.734v19.888h-24.734zm84.469 35.888h40.707a8 8 0 0 0 8-8v-35.888a8 8 0 0 0 -8-8h-40.707a8 8 0 0 0 -8 8v35.888a8 8 0 0 0 8 8zm8-35.888h24.707v19.888h-24.707zm84.469 35.888h40.706a8 8 0 0 0 8-8v-35.888a8 8 0 0 0 -8-8h-40.706a8 8 0 0 0 -8 8v35.888a8 8 0 0 0 8 8zm8-35.888h24.706v19.888h-24.706zm-192.938 123.765h40.734a8 8 0 0 0 8-8v-35.888a8 8 0 0 0 -8-8h-40.734a8 8 0 0 0 -8 8v35.888a8 8 0 0 0 8 8zm8-35.888h24.734v19.888h-24.734zm84.469 35.888h40.707a8 8 0 0 0 8-8v-35.888a8 8 0 0 0 -8-8h-40.707a8 8 0 0 0 -8 8v35.888a8 8 0 0 0 8 8zm8-35.888h24.707v19.888h-24.707zm-100.469-139.866h40.734a8 8 0 0 0 8-8v-35.916a8 8 0 0 0 -8-8h-40.734a8 8 0 0 0 -8 8v35.916a8 8 0 0 0 8 8zm8-35.916h24.734v19.916h-24.734zm310.114 71.905h-40.707a8 8 0 0 0 -8 8v35.888a8 8 0 0 0 8 8h40.707a8 8 0 0 0 8-8v-35.888a8 8 0 0 0 -8-8zm-8 35.888h-24.707v-19.888h24.707zm-125.176 103.877h40.706a8 8 0 0 0 8-8v-35.888a8 8 0 0 0 -8-8h-40.706a8 8 0 0 0 -8 8v35.888a8 8 0 0 0 8 8zm8-35.888h24.706v19.888h-24.706zm77.7-160.786a8 8 0 1 1 11.275-11.352l10.294 10.223 20.936-24.739a8 8 0 1 1 12.214 10.336l-26.533 31.352a8 8 0 0 1 -5.767 2.825c-.115 0-.231.007-.345.007a8 8 0 0 1 -5.638-2.324z"/></svg>