<?xml version="1.0" encoding="iso-8859-1"?>
<!-- Generator: Adobe Illustrator 19.0.0, SVG Export Plug-In . SVG Version: 6.00 Build 0)  -->
<svg version="1.1" id="Capa_1" xmlns="http://www.w3.org/2000/svg" xmlns:xlink="http://www.w3.org/1999/xlink" x="0px" y="0px"
	 viewBox="0 0 512 512" style="enable-background:new 0 0 512 512;" xml:space="preserve">
<g>
	<g>
		<path d="M437.02,74.98C388.667,26.629,324.38,0,256,0S123.333,26.629,74.98,74.98C26.629,123.333,0,187.62,0,256
			s26.629,132.667,74.98,181.02C123.333,485.371,187.62,512,256,512s132.667-26.629,181.02-74.98
			C485.371,388.667,512,324.38,512,256S485.371,123.333,437.02,74.98z M426.413,426.413C380.894,471.932,320.374,497,256,497
			s-124.894-25.068-170.413-70.587C40.068,380.894,15,320.374,15,256S40.068,131.106,85.587,85.587
			C131.106,40.068,191.626,15,256,15s124.894,25.068,170.413,70.587C471.932,131.106,497,191.626,497,256
			S471.932,380.894,426.413,426.413z"/>
	</g>
</g>
<g>
	<g>
		<path d="M256,80.161c-4.142,0-7.5,3.358-7.5,7.5v32.064c0,4.142,3.358,7.5,7.5,7.5c4.142,0,7.5-3.357,7.5-7.499V87.661
			C263.5,83.519,260.142,80.161,256,80.161z"/>
	</g>
</g>
<g>
	<g>
		<path d="M256,384.774c-4.142,0-7.5,3.358-7.5,7.5v32.064c0,4.142,3.358,7.5,7.5,7.5c4.142,0,7.5-3.358,7.5-7.5v-32.064
			C263.5,388.132,260.142,384.774,256,384.774z"/>
	</g>
</g>
<g>
	<g>
		<path d="M424.339,248.5h-32.064c-4.142,0-7.5,3.358-7.5,7.5c0,4.142,3.358,7.5,7.5,7.5h32.064c4.142,0,7.5-3.358,7.5-7.5
			C431.839,251.858,428.481,248.5,424.339,248.5z"/>
	</g>
</g>
<g>
	<g>
		<path d="M119.725,248.5H87.661c-4.142,0-7.5,3.358-7.5,7.5c0,4.142,3.358,7.5,7.5,7.5h32.064c4.142,0,7.5-3.358,7.5-7.5
			C127.225,251.858,123.867,248.5,119.725,248.5z"/>
	</g>
</g>
<g>
	<g>
		<path d="M127.849,173.352l-13.884-8.016c-3.588-2.072-8.174-0.842-10.245,2.745c-2.071,3.587-0.842,8.174,2.745,10.245
			l13.884,8.016c1.181,0.682,2.471,1.006,3.743,1.006c2.592,0,5.113-1.346,6.502-3.751
			C132.665,180.01,131.436,175.423,127.849,173.352z"/>
	</g>
</g>
<g>
	<g>
		<path d="M405.535,333.674l-13.884-8.016c-3.587-2.072-8.174-0.842-10.245,2.745c-2.071,3.587-0.842,8.174,2.745,10.245
			l13.884,8.016c1.181,0.682,2.471,1.006,3.743,1.006c2.592,0,5.113-1.346,6.502-3.751
			C410.351,340.332,409.122,335.745,405.535,333.674z"/>
	</g>
</g>
<g>
	<g>
		<path d="M343.919,103.72c-3.587-2.072-8.174-0.842-10.245,2.745l-8.016,13.884c-2.071,3.587-0.842,8.174,2.745,10.245
			c1.181,0.682,2.471,1.006,3.743,1.006c2.592,0,5.113-1.346,6.502-3.751l8.016-13.884
			C348.735,110.378,347.506,105.791,343.919,103.72z"/>
	</g>
</g>
<g>
	<g>
		<path d="M183.597,381.406c-3.588-2.072-8.175-0.842-10.245,2.745l-8.016,13.884c-2.071,3.587-0.842,8.174,2.745,10.245
			c1.181,0.682,2.471,1.006,3.743,1.006c2.592,0,5.113-1.346,6.502-3.751l8.016-13.884
			C188.413,388.064,187.184,383.477,183.597,381.406z"/>
	</g>
</g>
<g>
	<g>
		<path d="M408.281,168.08c-2.071-3.587-6.659-4.816-10.245-2.745l-13.884,8.016c-3.587,2.071-4.816,6.658-2.745,10.245
			c1.389,2.406,3.91,3.751,6.502,3.751c1.272,0,2.562-0.324,3.743-1.006l13.884-8.016
			C409.123,176.254,410.352,171.667,408.281,168.08z"/>
	</g>
</g>
<g>
	<g>
		<path d="M130.594,328.403c-2.071-3.588-6.658-4.817-10.245-2.745l-13.884,8.016c-3.587,2.071-4.816,6.658-2.745,10.245
			c1.389,2.406,3.91,3.751,6.502,3.751c1.272,0,2.562-0.324,3.743-1.006l13.884-8.016
			C131.436,336.578,132.665,331.991,130.594,328.403z"/>
	</g>
</g>
<g>
	<g>
		<path d="M186.342,120.349l-8.016-13.884c-2.071-3.588-6.658-4.817-10.245-2.745c-3.587,2.071-4.816,6.658-2.745,10.245
			l8.016,13.884c1.389,2.406,3.91,3.751,6.502,3.751c1.272,0,2.562-0.324,3.743-1.006
			C187.184,128.523,188.413,123.936,186.342,120.349z"/>
	</g>
</g>
<g>
	<g>
		<path d="M346.664,398.035l-8.016-13.884c-2.07-3.587-6.658-4.817-10.245-2.745c-3.587,2.071-4.816,6.658-2.745,10.245
			l8.016,13.884c1.389,2.406,3.91,3.751,6.502,3.751c1.272,0,2.562-0.324,3.743-1.006
			C347.506,406.209,348.735,401.622,346.664,398.035z"/>
	</g>
</g>
<g>
	<g>
		<path d="M367.622,238.827c-0.629-4.093-4.451-6.902-8.553-6.272l-82.173,12.642c-3.921-7.554-11.813-12.729-20.895-12.729
			c-3.757,0-7.309,0.89-10.463,2.463l-80.427-80.427c-2.929-2.929-7.678-2.929-10.606,0c-2.929,2.929-2.929,7.678,0,10.606
			l80.427,80.427c-1.573,3.154-2.463,6.706-2.463,10.463c0,12.976,10.557,23.532,23.532,23.532c11.604,0,21.267-8.445,23.181-19.51
			l82.169-12.641C365.444,246.75,368.252,242.921,367.622,238.827z M256,264.532c-4.705,0-8.532-3.828-8.532-8.532
			c0-4.704,3.828-8.532,8.532-8.532s8.532,3.828,8.532,8.532S260.705,264.532,256,264.532z"/>
	</g>
</g>
<g>
	<g>
		<path d="M390.746,97.743c-39.66-33.836-90.282-51.411-142.547-49.473c-52.557,1.943-101.996,23.508-139.208,60.72
			c-37.212,37.212-58.777,86.651-60.72,139.208c-1.933,52.263,15.637,102.888,49.473,142.547c1.483,1.739,3.589,2.632,5.709,2.632
			c1.722,0,3.452-0.589,4.864-1.794c3.151-2.688,3.526-7.422,0.838-10.573c-31.389-36.792-47.689-83.761-45.895-132.258
			c1.803-48.761,21.811-94.629,56.337-129.156c34.526-34.527,80.395-54.534,129.156-56.337c48.5-1.793,95.466,14.506,132.258,45.895
			c3.15,2.688,7.885,2.313,10.573-0.838S393.897,100.431,390.746,97.743z"/>
	</g>
</g>
<g>
	<g>
		<path d="M414.257,121.254c-2.688-3.151-7.422-3.527-10.573-0.838c-3.151,2.688-3.526,7.422-0.838,10.573
			c31.389,36.792,47.688,83.762,45.895,132.258c-1.803,48.761-21.811,94.629-56.337,129.156
			c-34.526,34.527-80.395,54.534-129.156,56.337c-48.492,1.795-95.466-14.505-132.258-45.895c-3.15-2.688-7.885-2.313-10.573,0.838
			c-2.688,3.151-2.313,7.885,0.838,10.573c37.687,32.153,85.273,49.617,134.76,49.617c2.59,0,5.188-0.048,7.788-0.144
			c52.557-1.943,101.996-23.508,139.208-60.72c37.212-37.212,58.777-86.651,60.72-139.208
			C465.663,211.539,448.093,160.914,414.257,121.254z"/>
	</g>
</g>
<g>
</g>
<g>
</g>
<g>
</g>
<g>
</g>
<g>
</g>
<g>
</g>
<g>
</g>
<g>
</g>
<g>
</g>
<g>
</g>
<g>
</g>
<g>
</g>
<g>
</g>
<g>
</g>
<g>
</g>
</svg>
