<?xml version="1.0" encoding="UTF-8" standalone="no"?>
<svg
   height="960"
   viewBox="0 0 960 960"
   width="960"
   version="1.1"
   id="svg4"
   sodipodi:docname="icon.svg"
   inkscape:version="1.1.1 (3bf5ae0d25, 2021-09-20)"
   xmlns:inkscape="http://www.inkscape.org/namespaces/inkscape"
   xmlns:sodipodi="http://sodipodi.sourceforge.net/DTD/sodipodi-0.dtd"
   xmlns="http://www.w3.org/2000/svg"
   xmlns:svg="http://www.w3.org/2000/svg">
  <defs
     id="defs8" />
  <sodipodi:namedview
     id="namedview6"
     pagecolor="#ffffff"
     bordercolor="#cccccc"
     borderopacity="1"
     inkscape:pageshadow="0"
     inkscape:pageopacity="1"
     inkscape:pagecheckerboard="0"
     showgrid="false"
     inkscape:zoom="0.909375"
     inkscape:cx="479.45017"
     inkscape:cy="480.54983"
     inkscape:window-width="3840"
     inkscape:window-height="2066"
     inkscape:window-x="-11"
     inkscape:window-y="-11"
     inkscape:window-maximized="1"
     inkscape:current-layer="svg4" />
  <path
     d="m 535.80675,636.92443 v 113.37916 h 109.79121 v 97.59219 H 535.80675 V 961.27495 H 431.03866 V 847.89578 H 321.24744 V 750.30359 H 431.03866 V 636.92443 Z"
     id="path938"
     style="stroke-width:1" />
  <path
     id="path2"
     d="m 125.64215,390.51787 c 14.80891,3.27615 26.7618,9.24344 35.8587,17.90186 9.0969,8.6584 13.64536,21.88003 13.64536,39.66487 0,26.44328 -8.6738,44.98866 -26.02137,55.63617 -17.34758,10.6475 -41.57071,15.97124 -72.669433,15.97124 H 2.1993127 V 275.7354 H 67.887395 c 31.733374,0 56.009415,4.85574 72.828105,14.56719 16.81869,9.71147 25.22802,25.79972 25.22802,48.2648 0,14.27468 -3.86088,25.68273 -11.58267,34.22414 -7.72179,8.5414 -17.29468,14.45018 -28.7187,17.72634 z m 219.85192,129.17417 h -49.18675 l -2.22133,-22.11406 c -11.84712,18.95489 -28.66581,28.43234 -50.45606,28.43234 -15.65513,0 -27.44936,-5.20675 -35.38271,-15.62024 -7.93334,-10.4135 -11.90002,-24.86368 -11.90002,-43.35057 V 332.60012 h 56.48541 v 126.36602 c 0,7.95637 1.11066,13.51413 3.332,16.67328 2.22134,3.15916 5.55335,4.73874 9.99602,4.73874 4.01956,0 7.98623,-1.57958 11.90002,-4.73874 3.91378,-3.15915 7.56311,-7.78087 10.948,-13.86516 V 332.60012 h 56.48541 z m 94.82241,-234.12817 v 47.03625 h 38.39739 l -5.712,42.82404 h -32.68539 v 78.27672 c 0,8.4244 1.21646,14.39169 3.64934,17.90186 2.43291,3.51016 6.08224,5.26525 10.94802,5.26525 5.92356,0 11.63556,-1.75509 17.13603,-5.26525 l 18.72269,38.96285 c -6.55824,5.14824 -14.17425,9.00943 -22.84803,11.58356 -8.67381,2.57411 -17.13603,3.86117 -25.38671,3.86117 -39.13783,0 -58.70674,-23.86913 -58.70674,-71.6074 v -78.97877 h -21.89602 v -42.82403 h 21.89602 v -39.6649 z m 124.6518,0 v 47.03625 h 38.39739 l -5.71202,42.82404 h -32.68537 v 78.27672 c 0,8.4244 1.21645,14.39169 3.64935,17.90186 2.43289,3.51016 6.08222,5.26525 10.94801,5.26525 5.92356,0 11.63557,-1.75509 17.13602,-5.26525 l 18.72269,38.96285 c -6.55823,5.14824 -14.17424,9.00943 -22.84803,11.58356 -8.67379,2.57411 -17.13602,3.86117 -25.3867,3.86117 -39.13782,0 -58.70674,-23.86913 -58.70674,-71.6074 v -78.97877 h -21.89603 v -42.82403 h 21.89603 v -39.6649 z m 132.90248,40.71794 c 26.44447,0 47.17694,8.77542 62.19741,26.32626 15.02046,17.55083 22.53069,42.122 22.53069,73.71351 0,20.12494 -3.38489,37.67579 -10.15467,52.6525 -6.76979,14.97672 -16.55424,26.56027 -29.35337,34.75066 -12.79913,8.1904 -27.87249,12.28558 -45.22006,12.28558 -26.44448,0 -47.17694,-8.77542 -62.19742,-26.32625 -15.02046,-17.55084 -22.53068,-42.12201 -22.53068,-73.71351 0,-20.12495 3.38488,-37.67579 10.15467,-52.65251 6.76978,-14.97672 16.55424,-26.56027 29.35337,-34.75066 12.79912,-8.1904 27.87248,-12.28558 45.22006,-12.28558 z m 213.82258,0 c 14.38579,0 25.70403,4.91424 33.9547,14.74271 8.25068,9.82846 12.37602,23.63512 12.37602,41.41996 v 137.24756 h -56.4854 V 393.67702 c 0,-8.19038 -1.05779,-13.86516 -3.17334,-17.02431 -2.11556,-3.15915 -5.2889,-4.73874 -9.52002,-4.73874 -8.88534,0 -17.34758,7.13734 -25.38668,21.41202 V 519.69204 H 806.9732 V 332.60012 h 49.18674 l 4.12534,21.061 c 7.61601,-9.36045 15.54935,-16.26378 23.80001,-20.70999 8.25068,-4.44622 17.45337,-6.66932 27.60805,-6.66932 z M 60.906053,321.01655 v 50.89742 h 15.232021 c 10.366234,0 17.982244,-2.10608 22.848034,-6.31828 4.865782,-4.2122 7.298672,-10.99853 7.298672,-20.35897 0,-8.65842 -2.59155,-14.85973 -7.774679,-18.6039 -5.183117,-3.74417 -13.59246,-5.61627 -25.228032,-5.61627 z m 15.866688,152.34126 c 12.481793,0 21.896036,-2.04759 28.242709,-6.1428 6.34668,-4.09518 9.52001,-11.75904 9.52001,-22.99158 0,-10.76451 -2.96178,-18.54539 -8.88534,-23.34262 -5.923564,-4.79722 -14.491583,-7.19582 -25.704042,-7.19582 H 60.906053 v 59.67282 z M 697.87076,371.56296 c -9.0969,0 -15.81379,4.38771 -20.1507,13.16314 -4.33689,8.77542 -6.50534,22.52356 -6.50534,41.24446 0,19.42293 2.16845,33.4051 6.50534,41.94649 4.33691,8.54141 11.0538,12.81212 20.1507,12.81212 9.0969,0 15.81379,-4.38771 20.1507,-13.16313 4.33689,-8.77543 6.50534,-22.52357 6.50534,-41.24446 0,-19.18891 -2.16845,-33.11258 -6.50534,-41.771 -4.33691,-8.6584 -11.0538,-12.98762 -20.1507,-12.98762 z"
     style="stroke-width:1" />
</svg>
