<?xml version="1.0" encoding="UTF-8" standalone="no"?>
<svg
   height="512"
   viewBox="0 0 24 24"
   width="512"
   version="1.1"
   id="svg1"
   sodipodi:docname="next_page.svg"
   inkscape:version="1.3.2 (091e20e, 2023-11-25, custom)"
   xmlns:inkscape="http://www.inkscape.org/namespaces/inkscape"
   xmlns:sodipodi="http://sodipodi.sourceforge.net/DTD/sodipodi-0.dtd"
   xmlns="http://www.w3.org/2000/svg"
   xmlns:svg="http://www.w3.org/2000/svg">
  <defs
     id="defs1" />
  <sodipodi:namedview
     id="namedview1"
     pagecolor="#ffffff"
     bordercolor="#000000"
     borderopacity="0.25"
     inkscape:showpageshadow="2"
     inkscape:pageopacity="0.0"
     inkscape:pagecheckerboard="0"
     inkscape:deskcolor="#d1d1d1"
     inkscape:zoom="3.6972656"
     inkscape:cx="255.86476"
     inkscape:cy="256"
     inkscape:window-width="3840"
     inkscape:window-height="2089"
     inkscape:window-x="-8"
     inkscape:window-y="-8"
     inkscape:window-maximized="1"
     inkscape:current-layer="svg1" />
  <path
     id="Shape"
     d="M 8.5,1.9995 C 8.361,2.0005 8.236,2.0565 8.145,2.1475 L 4.147,6.1455 C 4.056,6.2355 4,6.3615 4,6.4995 v 14 c 0,0.277 0.224,0.5 0.5,0.5 h 14 c 0.276,0 0.5,-0.223 0.5,-0.5 v -18 c 0,-0.275 -0.224,-0.5 -0.5,-0.5 z m 0.5,1 h 9 v 17 H 5 v -13 h 3.5 c 0.276,0 0.5,-0.223 0.5,-0.5 z m 2.309,5.038 C 11.122,8.1145 11,8.2975 11,8.4994993 V 10.5145 c -2.69,0.157 -4,1.629 -4,4.484999 0,0.202001 0.122,0.385001 0.309,0.462001 0.186,0.077 0.401,0.035 0.545,-0.108 0.753,-0.754 1.899,-0.842 3.146,-0.853 v 1.998999 c 0,0.202001 0.122,0.385001 0.309,0.462001 0.062,0.025 0.127,0.038 0.191,0.038 0.13,0 0.258,-0.051 0.354,-0.145999 l 4,-4 c 0.195,-0.196 0.195,-0.512 0,-0.708 l -4,-4 C 11.71,8.002501 11.495,7.960501 11.309,8.0375 Z M 12,9.7065 14.793,12.4995 12,15.2925 v -1.293 c 0,-0.276 -0.224,-0.5 -0.5,-0.5 l -0.596583,0.0023 C 9.908278,13.51324 8.918,13.58185 8.068,13.993513 c 0.264,-1.758 1.313,-2.494 3.432,-2.494 0.276,0 0.5,-0.224 0.5,-0.5 z m -4,-6 v 2.293 H 5.707 Z"
     fill="#000000"
     style="fill-rule:evenodd" />
</svg>
