<svg height="512" viewBox="0 0 24 24" width="512" xmlns="http://www.w3.org/2000/svg"><g id="symbol/curved-arrow-left-mini" fill="none" fill-rule="evenodd"><path id="Shape" d="m14.5 1.9995c.139.001.264.057.355.148l3.998 3.998c.091.09.147.216.147.354v14c0 .277-.224.5-.5.5h-14c-.276 0-.5-.223-.5-.5v-18c0-.275.224-.5.5-.5zm-.5 1h-9v17h13v-13h-3.5c-.276 0-.5-.223-.5-.5zm-2.309 5.038c.187.077.309.26.309.46199926v2.01500074c2.69.157 4 1.629 4 4.4849993 0 .2020007-.122.3850007-.309.4620007-.186.077-.401.035-.545-.108-.753-.754-1.899-.842-3.146-.853v1.9989993c0 .2020007-.122.3850007-.309.4620007-.062.025-.127.0379993-.191.0379993-.13 0-.258-.0509993-.354-.1459993l-4-4c-.195-.196-.195-.512 0-.708l4-4c.144-.143.359-.185.545-.108zm-.691 1.669-2.793 2.793 2.793 2.793v-1.293c0-.276.224-.5.5-.5l.5965833.002287c.9951389.0114352 1.9854167.0800463 2.8354167.491713-.264-1.758-1.313-2.494-3.432-2.494-.276 0-.5-.224-.5-.5zm4-6v2.293h2.293z" fill="rgb(0,0,0)"/></g></svg>