<svg id="Layer_1" enable-background="new 0 0 66 66" viewBox="0 0 66 66" xmlns="http://www.w3.org/2000/svg"><g><path d="m62 17.75h-5.26v-7.25c0-.96-.79-1.75-1.75-1.75h-2c-.96 0-1.75.79-1.75 1.75v7.25h-4.5v-7.25c0-.96-.79-1.75-1.75-1.75h-2c-.96 0-1.75.79-1.75 1.75v7.25h-4.5v-7.25c0-.96-.79-1.75-1.75-1.75h-2c-.96 0-1.75.79-1.75 1.75v7.25h-5.5v-7.25c0-.96-.79-1.75-1.75-1.75h-2c-.96 0-1.75.79-1.75 1.75v7.25h-4.5v-7.25c0-.96-.79-1.75-1.75-1.75h-2c-.96 0-1.75.79-1.75 1.75v7.25h-6.24c-1.52 0-2.75 1.23-2.75 2.75v25c0 1.52 1.23 2.75 2.75 2.75h6.26v7.25c0 .96.79 1.75 1.75 1.75h2c.96 0 1.75-.79 1.75-1.75v-7.25h4.5v7.25c0 .96.79 1.75 1.75 1.75h2c.96 0 1.75-.79 1.75-1.75v-7.25h5.5v7.25c0 .96.79 1.75 1.75 1.75h2c.96 0 1.75-.79 1.75-1.75v-7.25h4.5v7.25c0 .96.79 1.75 1.75 1.75h2c.96 0 1.75-.79 1.75-1.75v-7.25h4.5v7.25c0 .96.79 1.75 1.75 1.75h2c.96 0 1.75-.79 1.75-1.75v-7.25h5.24c1.52 0 2.75-1.23 2.75-2.75v-25c0-1.52-1.23-2.75-2.75-2.75zm-9.26-7.25c0-.14.11-.25.25-.25h2c.14 0 .25.11.25.25v7.25h-2.5zm-9.99 0c0-.14.11-.25.25-.25h2c.14 0 .25.11.25.25v7.25h-2.5zm-10 0c0-.14.11-.25.25-.25h2c.14 0 .25.11.25.25v7.25h-2.5zm-11 0c0-.14.11-.25.25-.25h2c.14 0 .25.11.25.25v7.25h-2.5zm-9.99 0c0-.14.11-.25.25-.25h2c.14 0 .25.11.25.25v7.25h-2.5zm2.5 45c0 .14-.11.25-.25.25h-2c-.14 0-.25-.11-.25-.25v-7.25h2.5zm9.99 0c0 .14-.11.25-.25.25h-2c-.14 0-.25-.11-.25-.25v-7.25h2.5zm11 0c0 .14-.11.25-.25.25h-2c-.14 0-.25-.11-.25-.25v-7.25h2.5zm10 0c0 .14-.11.25-.25.25h-2c-.14 0-.25-.11-.25-.25v-7.25h2.5zm9.99 0c0 .14-.11.25-.25.25h-2c-.14 0-.25-.11-.25-.25v-7.25h2.5zm8.01-10c0 .69-.56 1.25-1.25 1.25h-58c-.69 0-1.25-.56-1.25-1.25v-25c0-.69.56-1.25 1.25-1.25h58c.69 0 1.25.56 1.25 1.25z"/><path d="m58 21.75h-50c-1.52 0-2.75 1.23-2.75 2.75v17c0 1.52 1.23 2.75 2.75 2.75h50c1.52 0 2.75-1.23 2.75-2.75v-17c0-1.52-1.23-2.75-2.75-2.75zm1.25 19.75c0 .69-.56 1.25-1.25 1.25h-50c-.69 0-1.25-.56-1.25-1.25v-17c0-.69.56-1.25 1.25-1.25h50c.69 0 1.25.56 1.25 1.25z"/><path d="m25.54 29.8c0-2.19-1.78-3.97-3.97-3.97h-4.44c-.1 0-.2.02-.29.06-.27.11-.46.38-.46.69v6.45.01 6.38c0 .41.34.75.75.75s.75-.34.75-.75v-5.65h.4l4.98 6.12c.15.18.36.28.58.28.17 0 .33-.06.47-.17.32-.26.37-.73.11-1.06l-4.21-5.17h1.36c2.18.01 3.97-1.78 3.97-3.97zm-7.67-2.47h3.69c1.36 0 2.47 1.11 2.47 2.47s-1.11 2.47-2.47 2.47h-3.69z"/><path d="m34.99 34.83c0-.15-.06-.29-.13-.4l-2.65-7.99c-.1-.31-.39-.51-.71-.51s-.61.21-.71.51l-4.22 12.75c-.13.39.08.82.48.95.08.03.16.04.24.04.31 0 .61-.2.71-.51l1.35-4.07h4.32l1.33 4.06c.13.39.55.61.95.48.39-.13.61-.55.48-.95zm-5.16-.75 1.66-5.02 1.66 5.02z"/><path d="m49.17 25.98c-.28-.11-.61-.04-.82.18l-3.55 3.7-3.55-3.7c-.21-.22-.54-.29-.82-.18s-.47.39-.47.7v12.75c0 .41.34.75.75.75s.75-.34.75-.75v-10.89l2.8 2.92c.28.29.8.29 1.08 0l2.8-2.92v10.88c0 .41.34.75.75.75s.75-.34.75-.75v-12.74c0-.31-.19-.59-.47-.7z"/></g></svg>