<svg xmlns="http://www.w3.org/2000/svg" version="1.1" xmlns:xlink="http://www.w3.org/1999/xlink" xmlns:svgjs="http://svgjs.com/svgjs" width="512" height="512" x="0" y="0" viewBox="0 0 512 512" style="enable-background:new 0 0 512 512" xml:space="preserve" class=""><g transform="matrix(6.123233995736766e-17,1,-1,6.123233995736766e-17,512.0012001991272,-0.0013327598571777344)"><path d="M323.288 37.185a88.186 88.186 0 0 0-134.576 0L57.136 192.78a53.814 53.814 0 0 0 41.288 88.52H135.5v158.914a65.968 65.968 0 0 0 66 65.786h109a65.968 65.968 0 0 0 66-65.786V281.3h37.076a53.814 53.814 0 0 0 41.288-88.523ZM135.5 269.3H98.424A41.6 41.6 0 0 1 60.3 245.018a42.266 42.266 0 0 1-3.532-12.011 53.209 53.209 0 0 0 41.66 19.4H129.5a5.986 5.986 0 0 1 6 5.958Zm175 224.7h-109a54.028 54.028 0 0 1-53-43.533 66.013 66.013 0 0 0 53 26.637h109a66.013 66.013 0 0 0 53-26.637 54.028 54.028 0 0 1-53 43.533Zm54-235.637v152.953a53.956 53.956 0 0 1-54 53.788h-109a53.956 53.956 0 0 1-54-53.788V258.363a18 18 0 0 0-18-17.958H98.424a41.368 41.368 0 0 1-39.435-27.435 42.2 42.2 0 0 1 7.311-12.442L197.874 44.933a76.189 76.189 0 0 1 116.252 0L445.7 200.528a42.2 42.2 0 0 1 7.309 12.442 41.368 41.368 0 0 1-39.435 27.435H382.5a18 18 0 0 0-18 17.958Zm87.2-13.345a41.6 41.6 0 0 1-38.124 24.282H376.5v-10.94a5.986 5.986 0 0 1 6-5.958h31.076a53.209 53.209 0 0 0 41.66-19.4 42.266 42.266 0 0 1-3.536 12.016Z" data-name="Outline" fill="#000000" data-original="#000000" class=""></path></g></svg>